<?xml version="1.0" encoding="iso-8859-1"?>
<!-- Generator: Adobe Illustrator 19.0.0, SVG Export Plug-In . SVG Version: 6.00 Build 0)  -->
<svg version="1.1" id="Capa_1" xmlns="http://www.w3.org/2000/svg" xmlns:xlink="http://www.w3.org/1999/xlink" x="0px" y="0px"
	 viewBox="0 0 512 512" style="enable-background:new 0 0 512 512;" xml:space="preserve">
<path style="fill:#17ACE8;" d="M485.448,25.275c-34.501-33.6-92.098-33.9-126.899,0.3l-32.098,32.098c-6.002,5.7-6.002,15.3,0,21
	l52.8,52.8l53.397,53.101c5.702,6,15.3,6,21.002,0l31.798-31.8C520.55,117.674,521.15,60.975,485.448,25.275z"/>
<path style="fill:#1689FC;" d="M485.448,152.775l-31.798,31.8c-5.702,6-15.3,6-21.002,0l-53.397-53.101L485.448,25.275
	C521.15,60.975,520.55,117.674,485.448,152.775z"/>
<path style="fill:#994C0F;" d="M103.166,461.866l-26.697-26.7l-26.404-26.1c-7.8-7.8-20.398-5.099-24.298,4.799l-3.9,9.3l-19.5,47.4
	c-4.801,11.1-2.098,23.701,6.302,32.401v0.3c8.101,8.099,20.698,11.4,32.699,6.299l47.699-19.499l9.302-3.9
	C108.568,482.266,110.666,468.765,103.166,461.866z"/>
<path style="fill:#FEDBAB;" d="M188.369,449.267l-90,36.899l-9.302,3.9l-33.9-33.6l-33.3-33.301l3.9-9.3l37.2-90.298
	c3.9-10.201,17.399-12.301,24.298-4.801l52.8,52.8l53.101,53.399C200.666,432.465,198.268,445.665,188.369,449.267z"/>
<path style="fill:#713708;" d="M103.166,461.866c7.5,6.899,5.402,20.4-4.797,24.3l-9.302,3.9l-47.699,19.499
	c-12.001,5.101-24.598,1.8-32.699-6.299v-0.3l67.8-67.8L103.166,461.866z"/>
<path style="fill:#FEC478;" d="M193.166,424.965c7.5,7.5,5.101,20.7-4.797,24.302l-90,36.899l-9.302,3.9l-33.9-33.6l84.899-84.901
	L193.166,424.965z"/>
<path style="fill:#FD003A;" d="M411.349,206.174l-53.401-53.399l-52.8-52.8c-5.402-5.7-15.597-5.7-20.999,0L66.267,318.765v0.3
	l63.303,63.3l63.596,63.6l218.183-218.791C417.351,221.775,417.351,211.574,411.349,206.174z"/>
<path style="fill:#DD0030;" d="M411.349,206.174c6.002,5.4,6.002,15.601,0,21L193.166,445.965l-63.596-63.6l228.378-229.59
	L411.349,206.174z"/>
<path style="fill:#C5C9F7;" d="M400.55,110.174l-63.604-63.3l-63.596,63.6l127.5,127.5l63.596-63.9L400.55,110.174z"/>
<polygon style="fill:#A8AFF1;" points="464.446,174.074 400.85,237.974 336.946,174.074 400.55,110.174 "/>
<g>
</g>
<g>
</g>
<g>
</g>
<g>
</g>
<g>
</g>
<g>
</g>
<g>
</g>
<g>
</g>
<g>
</g>
<g>
</g>
<g>
</g>
<g>
</g>
<g>
</g>
<g>
</g>
<g>
</g>
</svg>
